<?xml version="1.0"?>
<svg version="1.1" xmlns="http://www.w3.org/2000/svg" xmlns:xlink="http://www.w3.org/1999/xlink" width="1200" height="220">
    <desc iVinci="yes" version="4.6" gridStep="20" showGrid="no" snapToGrid="no" codePlatform="0"/>
    <g id="Layer1" name="Layer 1" opacity="1">
        <g id="Shape1">
            <desc shapeID="1" type="0" basicInfo-basicType="0" basicInfo-roundedRectRadius="12" basicInfo-polygonSides="6" basicInfo-starPoints="5" bounding="rect(-48.7821,-65.3553,97.5642,130.711)" text="" font-familyName="" font-pixelSize="20" font-bold="0" font-underline="0" font-alignment="1" strokeStyle="0" markerStart="0" markerEnd="0" shadowEnabled="0" shadowOffsetX="0" shadowOffsetY="2" shadowBlur="4" shadowOpacity="160" blurEnabled="0" blurRadius="4" transform="matrix(0.925515,0,0,0.925515,74.6775,100.535)" pers-center="0,0" pers-size="0,0" pers-start="0,0" pers-end="0,0" locked="0" mesh="" flag=""/>
            <path id="shapePath1" d="M29.5289,81.88 C29.5289,55.7387 46.0361,40.0476 75.2971,40.0476 C98.5202,40.0476 113.237,49.3425 119.278,67.8214 C120.108,70.6072 119.278,72.4147 116.503,73.3958 L109.813,75.679 C106.703,76.8173 105.393,76.1593 104.251,73.0598 C100.144,60.6412 91.4912,54.7383 75.2971,54.7383 C55.8489,54.7383 45.3737,64.5525 45.3737,81.7041 L45.3737,119.339 C45.3737,136.321 56.1728,146.322 75.2971,146.322 C91.6482,146.322 100.323,140.267 104.393,127.677 C105.547,124.38 106.859,123.743 109.967,124.882 L116.671,127.342 C119.46,128.164 120.431,130.123 119.46,132.885 C113.405,151.701 98.6772,161.022 75.2971,161.022 C46.0361,161.022 29.5289,145.332 29.5289,119.166 L29.5289,81.88 Z" style="stroke:none;fill-rule:evenodd;fill:#353939;fill-opacity:1;"/>
        </g>
        <g id="Shape2">
            <desc shapeID="2" type="0" basicInfo-basicType="0" basicInfo-roundedRectRadius="12" basicInfo-polygonSides="6" basicInfo-starPoints="5" bounding="rect(-7.85279,-65.3676,15.7056,130.735)" text="" font-familyName="" font-pixelSize="20" font-bold="0" font-underline="0" font-alignment="1" strokeStyle="0" markerStart="0" markerEnd="0" shadowEnabled="0" shadowOffsetX="0" shadowOffsetY="2" shadowBlur="4" shadowOpacity="160" blurEnabled="0" blurRadius="4" transform="matrix(0.925515,0,0,0.925515,143.233,98.0733)" pers-center="0,0" pers-size="0,0" pers-start="0,0" pers-end="0,0" locked="0" mesh="" flag=""/>
            <path id="shapePath2" d="M150.501,154.643 C150.501,157.756 149.36,158.572 146.586,158.572 L139.88,158.572 C136.758,158.572 135.965,157.756 135.965,154.643 L135.965,41.5145 C135.965,38.3937 136.758,37.5746 139.88,37.5746 L146.586,37.5746 C149.36,37.5746 150.501,38.3937 150.501,41.5145 L150.501,154.643 Z" style="stroke:none;fill-rule:evenodd;fill:#353939;fill-opacity:1;"/>
        </g>
        <g id="Shape3">
            <desc shapeID="3" type="0" basicInfo-basicType="0" basicInfo-roundedRectRadius="12" basicInfo-polygonSides="6" basicInfo-starPoints="5" bounding="rect(-9.00002,-62.2811,18,124.562)" text="" font-familyName="" font-pixelSize="20" font-bold="0" font-underline="0" font-alignment="1" strokeStyle="0" markerStart="0" markerEnd="0" shadowEnabled="0" shadowOffsetX="0" shadowOffsetY="2" shadowBlur="4" shadowOpacity="160" blurEnabled="0" blurRadius="4" transform="matrix(0.925515,0,0,0.925515,178.788,100.93)" pers-center="0,0" pers-size="0,0" pers-start="0,0" pers-end="0,0" locked="0" mesh="" flag=""/>
            <path id="shapePath3" d="M179.287,43.2878 C185.34,43.2878 187.118,45.2592 187.118,51.151 L187.118,52.444 C187.118,58.345 185.34,60.3044 179.287,60.3044 L178.3,60.3044 C172.414,60.3044 170.458,58.4987 170.458,52.444 L170.458,51.151 C170.458,45.2592 172.413,43.2878 178.3,43.2878 L179.287,43.2878 M182.218,74.1908 C185.34,74.1908 186.158,75.0302 186.158,78.1307 L186.158,154.643 C186.158,157.756 185.34,158.572 182.218,158.572 L175.346,158.572 C172.269,158.572 171.432,157.756 171.432,154.643 L171.432,78.1307 C171.432,75.0302 172.269,74.1908 175.346,74.1908 L182.218,74.1908 Z" style="stroke:none;fill-rule:evenodd;fill:#353939;fill-opacity:1;"/>
        </g>
        <g id="Shape4">
            <desc shapeID="4" type="0" basicInfo-basicType="0" basicInfo-roundedRectRadius="12" basicInfo-polygonSides="6" basicInfo-starPoints="5" bounding="rect(-38.155,-66.343,76.31,132.686)" text="" font-familyName="" font-pixelSize="20" font-bold="0" font-underline="0" font-alignment="1" strokeStyle="0" markerStart="0" markerEnd="0" shadowEnabled="0" shadowOffsetX="0" shadowOffsetY="2" shadowBlur="4" shadowOpacity="160" blurEnabled="0" blurRadius="4" transform="matrix(0.925515,0,0,0.925515,241.568,133.141)" pers-center="0,0" pers-size="0,0" pers-start="0,0" pers-end="0,0" locked="0" mesh="" flag=""/>
            <path id="shapePath4" d="M242.716,71.7391 C265.433,71.7391 276.881,82.6935 276.881,104.619 L276.881,127.676 C276.881,149.897 265.275,161.022 242.054,161.022 C236.332,161.022 229.31,159.555 220.804,156.601 L220.804,190.622 C220.804,193.726 219.999,194.542 216.875,194.542 L210.016,194.542 C207.239,194.542 206.255,193.401 206.255,190.622 L206.255,85.8069 C206.255,80.4121 207.396,78.611 212.659,76.4953 C220.804,73.3958 230.798,71.7391 242.716,71.7391 M262.174,105.114 C262.174,91.8719 254.967,85.1693 240.601,85.1693 C234.547,85.1693 228.816,85.9938 223.266,87.608 C221.129,88.4372 220.804,89.087 220.804,91.0453 L220.804,143.361 C228.996,146.149 235.688,147.616 240.913,147.616 C255.162,147.616 262.175,140.745 262.175,127.165 L262.175,105.114 L262.174,105.114 Z" style="stroke:none;fill-rule:evenodd;fill:#353939;fill-opacity:1;"/>
        </g>
        <g id="Shape5">
            <desc shapeID="5" type="0" basicInfo-basicType="0" basicInfo-roundedRectRadius="12" basicInfo-polygonSides="6" basicInfo-starPoints="5" bounding="rect(-38.1481,-66.6913,76.2962,133.383)" text="" font-familyName="" font-pixelSize="20" font-bold="0" font-underline="0" font-alignment="1" strokeStyle="0" markerStart="0" markerEnd="0" shadowEnabled="0" shadowOffsetX="0" shadowOffsetY="2" shadowBlur="4" shadowOpacity="160" blurEnabled="0" blurRadius="4" transform="matrix(0.925515,0,0,0.925515,329.693,99.2985)" pers-center="0,0" pers-size="0,0" pers-start="0,0" pers-end="0,0" locked="0" mesh="" flag=""/>
            <path id="shapePath5" d="M305.003,37.5746 C308.117,37.5746 308.944,38.3937 308.944,41.5145 L308.944,75.8447 C317.434,73.0598 325.113,71.7391 331.986,71.7391 C354.219,71.7391 365,83.3682 365,104.129 L365,127.02 C365,149.73 353.07,161.022 329.03,161.022 C318.087,161.022 308.453,159.387 300.428,155.952 C295.201,153.501 294.387,152.192 294.387,146.963 L294.387,41.5145 C294.387,38.7269 295.357,37.5746 298.133,37.5746 L305.003,37.5746 M350.293,104.62 C350.293,91.7043 343.433,85.1693 329.856,85.1693 C323.49,85.1693 316.451,86.6362 308.943,89.3989 L308.943,141.896 C308.943,143.36 309.745,144.515 311.215,144.996 C315.957,146.799 321.686,147.615 328.066,147.615 C342.929,147.615 350.293,140.576 350.293,126.516 L350.293,104.62 Z" style="stroke:none;fill-rule:evenodd;fill:#353939;fill-opacity:1;"/>
        </g>
        <g id="Shape6">
            <desc shapeID="6" type="0" basicInfo-basicType="0" basicInfo-roundedRectRadius="12" basicInfo-polygonSides="6" basicInfo-starPoints="5" bounding="rect(-39.6669,-48.2343,79.3339,96.4686)" text="" font-familyName="" font-pixelSize="20" font-bold="0" font-underline="0" font-alignment="1" strokeStyle="0" markerStart="0" markerEnd="0" shadowEnabled="0" shadowOffsetX="0" shadowOffsetY="2" shadowBlur="4" shadowOpacity="160" blurEnabled="0" blurRadius="4" transform="matrix(0.925515,0,0,0.925515,416.753,116.381)" pers-center="0,0" pers-size="0,0" pers-start="0,0" pers-end="0,0" locked="0" mesh="" flag=""/>
            <path id="shapePath6" d="M380.04,103.144 C380.04,83.5126 393.78,71.7391 416.678,71.7391 C440.057,71.7391 453.465,83.5126 453.465,103.144 L453.465,129.787 C453.465,149.249 440.057,161.022 416.678,161.022 C393.78,161.022 380.04,149.248 380.04,129.787 L380.04,103.144 M438.912,102.97 C438.912,91.7043 430.579,85.0017 416.678,85.0017 C402.937,85.0017 394.6,91.7043 394.6,102.97 L394.6,129.787 C394.6,141.068 402.938,147.79 416.678,147.79 C430.58,147.79 438.912,141.068 438.912,129.787 L438.912,102.97 Z" style="stroke:none;fill-rule:evenodd;fill:#353939;fill-opacity:1;"/>
        </g>
        <g id="Shape7">
            <desc shapeID="7" type="0" basicInfo-basicType="0" basicInfo-roundedRectRadius="12" basicInfo-polygonSides="6" basicInfo-starPoints="5" bounding="rect(-37.7198,-48.2343,75.4395,96.4686)" text="" font-familyName="" font-pixelSize="20" font-bold="0" font-underline="0" font-alignment="1" strokeStyle="0" markerStart="0" markerEnd="0" shadowEnabled="0" shadowOffsetX="0" shadowOffsetY="2" shadowBlur="4" shadowOpacity="160" blurEnabled="0" blurRadius="4" transform="matrix(0.925515,0,0,0.925515,501.612,116.381)" pers-center="0,0" pers-size="0,0" pers-start="0,0" pers-end="0,0" locked="0" mesh="" flag=""/>
            <path id="shapePath7" d="M502.67,71.7391 C527.356,71.7391 536.522,84.3289 536.522,104.775 L536.522,147.446 C536.522,153.165 535.201,154.822 530.625,156.77 C524.087,159.555 514.765,161.022 502.51,161.022 C488.925,161.022 479.446,158.908 474.378,154.642 C469.307,150.556 466.702,144.011 466.702,135.023 C466.702,116.052 476.829,109.363 503.16,109.363 C509.049,109.363 515.256,109.691 521.794,110.502 L521.794,104.294 C521.794,91.7025 516.723,84.8295 502.331,84.8295 C492.855,84.8295 486.152,88.0985 482.068,94.8038 C480.11,97.4232 479.773,97.903 476.672,96.7726 L471.604,94.478 C468.827,93.3369 468.178,91.5331 469.486,88.9166 C475.362,77.4689 486.477,71.7391 502.67,71.7391 M521.794,122.599 C513.144,121.786 506.271,121.298 501.529,121.298 C486.476,121.298 481.407,125.365 481.407,135.025 C481.407,144.345 485.997,148.757 501.203,148.757 C509.527,148.757 515.581,148.092 519.343,146.799 C520.977,146.149 521.794,144.996 521.794,143.193 L521.794,122.599 Z" style="stroke:none;fill-rule:evenodd;fill:#353939;fill-opacity:1;"/>
        </g>
        <g id="Shape8">
            <desc shapeID="8" type="0" basicInfo-basicType="0" basicInfo-roundedRectRadius="12" basicInfo-polygonSides="6" basicInfo-starPoints="5" bounding="rect(-24.4787,-46.91,48.9574,93.8201)" text="" font-familyName="" font-pixelSize="20" font-bold="0" font-underline="0" font-alignment="1" strokeStyle="0" markerStart="0" markerEnd="0" shadowEnabled="0" shadowOffsetX="0" shadowOffsetY="2" shadowBlur="4" shadowOpacity="160" blurEnabled="0" blurRadius="4" transform="matrix(0.925515,0,0,0.925515,577.957,115.155)" pers-center="0,0" pers-size="0,0" pers-start="0,0" pers-end="0,0" locked="0" mesh="" flag=""/>
            <path id="shapePath8" d="M596.685,71.7391 C599.774,71.7391 600.613,72.8932 600.613,75.679 L600.613,81.2516 C600.613,84.0169 599.774,85.1693 596.685,85.1693 L590.956,85.1693 C584.418,85.1693 578.21,86.1318 572.155,87.9328 C570.674,88.4364 569.858,89.5673 569.858,91.2008 L569.858,154.642 C569.858,157.755 569.042,158.571 565.941,158.571 L559.073,158.571 C556.31,158.571 555.302,157.419 555.302,154.642 L555.302,85.9929 C555.302,80.7471 556.453,78.946 561.521,76.8173 C569.693,73.7076 579.675,71.9177 591.437,71.7391 L596.685,71.7391 Z" style="stroke:none;fill-rule:evenodd;fill:#353939;fill-opacity:1;"/>
        </g>
        <g id="Shape9">
            <desc shapeID="9" type="0" basicInfo-basicType="0" basicInfo-roundedRectRadius="12" basicInfo-polygonSides="6" basicInfo-starPoints="5" bounding="rect(-38.1618,-66.6918,76.3238,133.384)" text="" font-familyName="" font-pixelSize="20" font-bold="0" font-underline="0" font-alignment="1" strokeStyle="0" markerStart="0" markerEnd="0" shadowEnabled="0" shadowOffsetX="0" shadowOffsetY="2" shadowBlur="4" shadowOpacity="160" blurEnabled="0" blurRadius="4" transform="matrix(0.925515,0,0,0.925515,642.131,99.2989)" pers-center="0,0" pers-size="0,0" pers-start="0,0" pers-end="0,0" locked="0" mesh="" flag=""/>
            <path id="shapePath9" d="M606.812,105.113 C606.812,83.5126 617.927,71.7391 640.005,71.7391 C646.383,71.7391 653.901,72.8932 662.889,75.3403 L662.889,41.5145 C662.889,38.3937 664.02,37.5746 666.806,37.5746 L673.676,37.5746 C676.464,37.5746 677.45,38.7269 677.45,41.5145 L677.45,146.964 C677.45,152.349 676.295,153.808 671.07,155.953 C662.239,159.388 652.426,161.023 641.805,161.023 C618.427,161.023 606.812,150.066 606.812,128.165 L606.812,105.113 L606.812,105.113 M662.889,88.762 C655.044,86.3122 648.33,85.1693 642.777,85.1693 C628.554,85.1693 621.516,92.0162 621.516,105.588 L621.516,127.677 C621.516,140.909 628.724,147.615 643.114,147.615 C649.818,147.615 655.526,146.799 660.58,144.996 C662.072,144.515 662.889,143.36 662.889,141.896 L662.889,88.762 Z" style="stroke:none;fill-rule:evenodd;fill:#353939;fill-opacity:1;"/>
        </g>
        <g id="Shape10">
            <desc shapeID="10" type="0" basicInfo-basicType="0" basicInfo-roundedRectRadius="12" basicInfo-polygonSides="6" basicInfo-starPoints="5" bounding="rect(-47.2526,-62.7195,94.5051,125.439)" text="" font-familyName="" font-pixelSize="20" font-bold="0" font-underline="0" font-alignment="1" strokeStyle="0" markerStart="0" markerEnd="0" shadowEnabled="0" shadowOffsetX="0" shadowOffsetY="2" shadowBlur="4" shadowOpacity="160" blurEnabled="0" blurRadius="4" transform="matrix(0.925515,0,0,0.925515,762.504,100.521)" pers-center="0,0" pers-size="0,0" pers-start="0,0" pers-end="0,0" locked="0" mesh="" flag=""/>
            <path id="shapePath10" d="M801.975,42.4743 C805.267,42.4743 806.237,43.621 806.237,46.7345 L806.237,154.317 C806.237,157.408 805.266,158.569 801.975,158.569 L794.777,158.569 C791.523,158.569 790.549,157.408 790.549,154.317 L790.549,107.057 L734.617,107.057 L734.617,154.317 C734.617,157.408 733.489,158.569 730.221,158.569 L723.025,158.569 C719.902,158.569 718.771,157.408 718.771,154.317 L718.771,46.7335 C718.771,43.621 719.902,42.4733 723.025,42.4733 L730.221,42.4733 C733.489,42.4733 734.617,43.62 734.617,46.7335 L734.617,92.3401 L790.549,92.3401 L790.549,46.7335 C790.549,43.621 791.524,42.4733 794.777,42.4733 L801.975,42.4733 L801.975,42.4743 Z" style="stroke:none;fill-rule:evenodd;fill:#007dc5;fill-opacity:1;"/>
        </g>
        <g id="Shape11">
            <desc shapeID="11" type="0" basicInfo-basicType="0" basicInfo-roundedRectRadius="12" basicInfo-polygonSides="6" basicInfo-starPoints="5" bounding="rect(-39.9431,-48.2301,79.8862,96.4602)" text="" font-familyName="" font-pixelSize="20" font-bold="0" font-underline="0" font-alignment="1" strokeStyle="0" markerStart="0" markerEnd="0" shadowEnabled="0" shadowOffsetX="0" shadowOffsetY="2" shadowBlur="4" shadowOpacity="160" blurEnabled="0" blurRadius="4" transform="matrix(0.925515,0,0,0.925515,861.501,116.379)" pers-center="0,0" pers-size="0,0" pers-start="0,0" pers-end="0,0" locked="0" mesh="" flag=""/>
            <path id="shapePath11" d="M824.534,106.73 C824.534,84.4936 837.46,71.741 861.485,71.741 C885.683,71.741 898.469,85.3089 898.469,105.59 L898.469,115.081 C898.469,118.831 896.497,120.799 892.395,120.799 L839.095,120.799 L839.095,128.655 C839.095,141.219 846.785,148.262 860.984,148.262 C871.621,148.262 879.315,144.501 883.72,136.995 C885.683,134.202 887.332,133.711 890.099,135.502 L894.524,137.812 C897.292,139.276 897.792,141.398 895.987,144.176 C889.608,155.448 877.843,161.016 860.837,161.016 C836.476,161.016 824.533,147.923 824.533,126.995 L824.533,106.73 L824.534,106.73 M883.907,104.775 C883.907,91.7006 876.047,84.1577 861.485,84.1577 C846.952,84.1577 839.096,91.8607 839.096,104.775 L839.096,109.507 L883.907,109.507 L883.907,104.775 Z" style="stroke:none;fill-rule:evenodd;fill:#007dc5;fill-opacity:1;"/>
        </g>
        <g id="Shape12">
            <desc shapeID="12" type="0" basicInfo-basicType="0" basicInfo-roundedRectRadius="12" basicInfo-polygonSides="6" basicInfo-starPoints="5" bounding="rect(-37.7188,-48.2302,75.4375,96.4603)" text="" font-familyName="" font-pixelSize="20" font-bold="0" font-underline="0" font-alignment="1" strokeStyle="0" markerStart="0" markerEnd="0" shadowEnabled="0" shadowOffsetX="0" shadowOffsetY="2" shadowBlur="4" shadowOpacity="160" blurEnabled="0" blurRadius="4" transform="matrix(0.925515,0,0,0.925515,945.291,116.38)" pers-center="0,0" pers-size="0,0" pers-start="0,0" pers-end="0,0" locked="0" mesh="" flag=""/>
            <path id="shapePath12" d="M946.346,71.7418 C971.035,71.7418 980.201,84.3261 980.201,104.775 L980.201,147.443 C980.201,153.162 978.895,154.797 974.313,156.765 C967.758,159.553 958.455,161.017 946.179,161.017 C932.618,161.017 923.129,158.885 918.065,154.629 C913.002,150.543 910.382,144.008 910.382,135.022 C910.382,116.039 920.519,109.342 946.856,109.342 C952.725,109.342 958.936,109.67 965.471,110.491 L965.471,104.276 C965.471,91.7006 960.398,84.8295 946.022,84.8295 C936.543,84.8295 929.851,88.0994 925.749,94.7992 C923.786,97.4183 923.453,97.8961 920.352,96.748 L915.289,94.4669 C912.502,93.3258 911.854,91.5219 913.169,88.9055 C919.057,77.4764 930.155,71.7418 946.346,71.7418 M965.471,122.587 C956.797,121.758 949.928,121.304 945.198,121.304 C930.155,121.304 925.111,125.376 925.111,135.021 C925.111,144.345 929.674,148.752 944.874,148.752 C953.205,148.752 959.25,148.09 963.028,146.781 C964.657,146.121 965.471,144.996 965.471,143.19 L965.471,122.587 Z" style="stroke:none;fill-rule:evenodd;fill:#007dc5;fill-opacity:1;"/>
        </g>
        <g id="Shape13">
            <desc shapeID="13" type="0" basicInfo-basicType="0" basicInfo-roundedRectRadius="12" basicInfo-polygonSides="6" basicInfo-starPoints="5" bounding="rect(-7.86176,-65.3655,15.7235,130.731)" text="" font-familyName="" font-pixelSize="20" font-bold="0" font-underline="0" font-alignment="1" strokeStyle="0" markerStart="0" markerEnd="0" shadowEnabled="0" shadowOffsetX="0" shadowOffsetY="2" shadowBlur="4" shadowOpacity="160" blurEnabled="0" blurRadius="4" transform="matrix(0.925515,0,0,0.925515,1007.08,98.0713)" pers-center="0,0" pers-size="0,0" pers-start="0,0" pers-end="0,0" locked="0" mesh="" flag=""/>
            <path id="shapePath13" d="M1014.36,154.628 C1014.36,157.752 1013.21,158.568 1010.45,158.568 L1003.72,158.568 C1000.62,158.568 999.807,157.752 999.807,154.628 L999.807,41.5006 C999.807,38.3909 1000.62,37.5745 1003.72,37.5745 L1010.45,37.5745 C1013.21,37.5745 1014.36,38.3909 1014.36,41.5006 L1014.36,154.628 Z" style="stroke:none;fill-rule:evenodd;fill:#007dc5;fill-opacity:1;"/>
        </g>
        <g id="Shape14">
            <desc shapeID="14" type="0" basicInfo-basicType="0" basicInfo-roundedRectRadius="12" basicInfo-polygonSides="6" basicInfo-starPoints="5" bounding="rect(-30.9277,-57.4365,61.8555,114.873)" text="" font-familyName="" font-pixelSize="20" font-bold="0" font-underline="0" font-alignment="1" strokeStyle="0" markerStart="0" markerEnd="0" shadowEnabled="0" shadowOffsetX="0" shadowOffsetY="2" shadowBlur="4" shadowOpacity="160" blurEnabled="0" blurRadius="4" transform="matrix(0.925515,0,0,0.925515,1054.91,107.725)" pers-center="0,0" pers-size="0,0" pers-start="0,0" pers-end="0,0" locked="0" mesh="" flag=""/>
            <path id="shapePath14" d="M1054.43,54.5671 C1057.18,54.5671 1058.35,55.3944 1058.35,58.5015 L1058.35,74.1953 L1079.75,74.1953 C1082.53,74.1953 1083.53,75.3393 1083.53,78.1159 L1083.53,83.8346 C1083.53,86.6195 1082.53,87.7606 1079.75,87.7606 L1058.35,87.7606 L1058.35,125.865 C1058.35,134.525 1059.81,140.078 1062.75,142.866 C1065.71,145.643 1071.26,147.107 1079.43,147.107 C1082.53,147.107 1083.53,147.923 1083.53,151.052 L1083.53,156.912 C1083.53,159.695 1082.53,160.683 1079.43,160.853 C1066.19,161.177 1057.05,158.885 1051.8,153.813 C1046.4,148.907 1043.79,139.762 1043.79,126.178 L1043.79,87.7616 L1030.23,87.7616 C1027.44,87.7616 1026.28,86.6204 1026.28,83.8355 L1026.28,78.1168 C1026.28,75.0015 1027.44,74.1963 1030.23,74.1963 L1043.79,74.1963 L1043.79,58.5015 C1043.79,55.3944 1044.76,54.5671 1047.55,54.5671 L1054.43,54.5671 Z" style="stroke:none;fill-rule:evenodd;fill:#007dc5;fill-opacity:1;"/>
        </g>
        <g id="Shape15">
            <desc shapeID="15" type="0" basicInfo-basicType="0" basicInfo-roundedRectRadius="12" basicInfo-polygonSides="6" basicInfo-starPoints="5" bounding="rect(-38.1534,-65.3655,76.3068,130.731)" text="" font-familyName="" font-pixelSize="20" font-bold="0" font-underline="0" font-alignment="1" strokeStyle="0" markerStart="0" markerEnd="0" shadowEnabled="0" shadowOffsetX="0" shadowOffsetY="2" shadowBlur="4" shadowOpacity="160" blurEnabled="0" blurRadius="4" transform="matrix(0.925515,0,0,0.925515,1131.59,98.0713)" pers-center="0,0" pers-size="0,0" pers-start="0,0" pers-end="0,0" locked="0" mesh="" flag=""/>
            <path id="shapePath15" d="M1107.06,37.5745 C1109.81,37.5745 1110.82,38.724 1110.82,41.5006 L1110.82,75.3402 C1115.89,72.8894 1123.43,71.7418 1133.69,71.7418 C1155.77,71.7418 1166.9,82.5361 1166.9,104.124 L1166.9,154.628 C1166.9,157.752 1165.76,158.568 1162.96,158.568 L1156.27,158.568 C1153.18,158.568 1152.34,157.752 1152.34,154.628 L1152.34,104.604 C1152.34,91.7006 1145.47,85.1415 1131.75,85.1415 C1122.76,85.1415 1115.89,86.451 1110.82,88.9046 L1110.82,154.628 C1110.82,157.407 1109.81,158.568 1107.06,158.568 L1100.18,158.568 C1097.42,158.568 1096.28,157.752 1096.28,154.628 L1096.28,41.5006 C1096.28,38.3909 1097.42,37.5745 1100.18,37.5745 L1107.06,37.5745 Z" style="stroke:none;fill-rule:evenodd;fill:#007dc5;fill-opacity:1;"/>
        </g>
    </g>
</svg>
